<svg xmlns="http://www.w3.org/2000/svg" xmlns:xlink="http://www.w3.org/1999/xlink" xml:space="preserve" width="1000" height="1500" viewBox="0 0 264.583 396.875"><defs><radialGradient xlink:href="#a" id="b" cx="26.375" cy="97.114" r="132.292" fx="26.375" fy="97.114" gradientTransform="matrix(0 3.07349 -2.00992 0 221.566 -34.611)" gradientUnits="userSpaceOnUse"/><linearGradient id="a"><stop offset="0" style="stop-color:#fff;stop-opacity:1"/><stop offset="1" style="stop-color:#ededed;stop-opacity:1"/></linearGradient></defs><path d="M0 0h264.583v396.875H0z" style="opacity:.98;fill:url(#b);fill-opacity:1;stroke-width:2.64583"/><g data-name="Layer 1" transform="translate(39.688 159.446)scale(.1816)"><path d="m880.072 0-51.729 91.317L776.613 0h-139.8l121.63 214.71-121.63 214.71h139.8l51.73-91.318 51.73 91.318h139.8l-121.63-214.71L1019.872 0Z"/><clipPath id="c"><path d="M0 0h1019.873v429.42H0Z"/></clipPath><g fill-rule="evenodd" clip-path="url(#c)"><path d="M519.354 303.684V125.736c0-20.024-16.233-36.257-36.257-36.257s-36.257 16.233-36.257 36.257v177.948c0 20.024 16.233 36.257 36.257 36.257s36.257-16.233 36.257-36.257m178.453-88.974c0 118.581-96.129 214.71-214.71 214.71-118.58 0-214.71-96.129-214.71-214.71S364.517 0 483.097 0s214.71 96.129 214.71 214.71"/><path d="M0 429.42V0h267.03l7.87 117.13H129.99v56.2h118.18v117.5H129.99v138.59Z"/></g></g><path d="M49.832 25A25 25 0 0 0 25 50v1400a25 25 0 0 0 25 25h900a25 25 0 0 0 25-25V50a25 25 0 0 0-25-25zm23.711 25a23.684 24.138 0 0 1 .14 0h852.633A23.684 24.138 0 0 1 950 74.139V1425.86a23.684 24.138 0 0 1-23.684 24.14H73.684A23.684 24.138 0 0 1 50 1425.861V74.14A23.684 24.138 0 0 1 73.543 50" style="opacity:.98;fill:#000;fill-opacity:1;stroke-width:46.3438" transform="scale(.26458)"/></svg>