<svg xmlns="http://www.w3.org/2000/svg" xmlns:xlink="http://www.w3.org/1999/xlink" xml:space="preserve" width="1000" height="562" viewBox="0 0 264.583 148.696"><defs><radialGradient xlink:href="#a" id="b" cx="26.375" cy="97.114" r="132.292" fx="26.375" fy="97.114" gradientTransform="matrix(0 1.15153 -2.00992 0 221.566 -12.968)" gradientUnits="userSpaceOnUse"/><linearGradient id="a"><stop offset="0" style="stop-color:#fff;stop-opacity:1"/><stop offset="1" style="stop-color:#ededed;stop-opacity:1"/></linearGradient></defs><path d="M0 0h264.583v148.696H0z" style="opacity:.98;fill:url(#b);fill-opacity:1;stroke-width:1.61952"/><g data-name="Layer 1" transform="translate(39.687 35.357)scale(.1816)"><path d="m880.072 0-51.729 91.317L776.613 0h-139.8l121.63 214.71-121.63 214.71h139.8l51.73-91.318 51.73 91.318h139.8l-121.63-214.71L1019.872 0Z"/><clipPath id="c"><path d="M0 0h1019.873v429.42H0Z"/></clipPath><g fill-rule="evenodd" clip-path="url(#c)"><path d="M519.354 303.684V125.736c0-20.024-16.233-36.257-36.257-36.257s-36.257 16.233-36.257 36.257v177.948c0 20.024 16.233 36.257 36.257 36.257s36.257-16.233 36.257-36.257m178.453-88.974c0 118.581-96.129 214.71-214.71 214.71-118.58 0-214.71-96.129-214.71-214.71S364.517 0 483.097 0s214.71 96.129 214.71 214.71"/><path d="M0 429.42V0h267.03l7.87 117.13H129.99v56.2h118.18v117.5H129.99v138.59Z"/></g></g><path d="M40 25a15 16 0 0 0-15 16v480a15 16 0 0 0 15 16h920a15 16 0 0 0 15-16V41a15 16 0 0 0-15-16Zm12.5 12.5h895a15 16 0 0 1 15 16v455a15 16 0 0 1-15 16h-895a15 16 0 0 1-15-16v-455a15 16 0 0 1 15-16" style="display:inline;opacity:.98;fill:#000;fill-opacity:1;stroke-width:85.9894" transform="scale(.26458)"/></svg>