<svg xmlns="http://www.w3.org/2000/svg" xmlns:xlink="http://www.w3.org/1999/xlink" xml:space="preserve" width="1000" height="1500" viewBox="0 0 264.583 396.875"><defs><radialGradient xlink:href="#a" id="b" cx="26.375" cy="97.114" r="132.292" fx="26.375" fy="97.114" gradientTransform="matrix(0 3.07349 -2.00992 0 221.566 -34.611)" gradientUnits="userSpaceOnUse"/><linearGradient id="a"><stop offset="0" style="stop-color:#fff;stop-opacity:1"/><stop offset="1" style="stop-color:#ededed;stop-opacity:1"/></linearGradient></defs><path d="M0 0h264.583v396.875H0z" style="opacity:.98;fill:url(#b);fill-opacity:1;stroke-width:2.64583"/><g fill-rule="evenodd"><path d="M94.074 236.225H73.78v-29.037H60.607v29.037h-20.92v-74.838h20.92v27.84H73.78v-27.84h20.294z"/><path d="M407.038 146.258c22.746 0 41.186-18.482 41.186-41.287 0-22.8-18.44-41.285-41.186-41.285-22.75 0-41.188 18.485-41.188 41.285 0 22.805 18.438 41.287 41.188 41.287m-52.393-41.287c0-29.004 23.455-52.518 52.393-52.518 28.936 0 52.395 23.514 52.395 52.518 0 29.008-23.46 52.521-52.395 52.521-28.938 0-52.393-23.513-52.393-52.521m-72.955 0c6.483-.823 17.29-8.254 21.097-12.996-1.338 5.88-1.44 22.9.124 28.781-4.346-6.705-14.634-14.96-21.221-15.785m-37.666-55.6c8.233 0 14.717 8.147 14.717 17.432s-6.484 17.438-14.717 17.438h-28.3V49.37Zm-.104 77.47c8.233 0 14.718 8.152 14.718 17.434 0 9.286-6.485 17.435-14.718 17.435h-28.3v-34.87zm163.083 83.95c57.665-.023 104.591-48.05 104.578-105.861C511.57 45.9 464.668.044 407.003 0c-57.598-.042-87.027 42.458-94.299 59.613.068-25.752-25.253-56.148-54.871-56.18h-95.426v206.33l88.97.018c35.87 0 61.394-31.156 61.437-57.873 8.188 16.814 36.591 58.903 94.19 58.883" style="stroke-width:1.01668" transform="translate(39.688 160.281)scale(.36203)"/></g><path d="M49.832 25A25 25 0 0 0 25 50v1400a25 25 0 0 0 25 25h900a25 25 0 0 0 25-25V50a25 25 0 0 0-25-25zm23.711 25a23.684 24.138 0 0 1 .14 0h852.633A23.684 24.138 0 0 1 950 74.139V1425.86a23.684 24.138 0 0 1-23.684 24.14H73.684A23.684 24.138 0 0 1 50 1425.861V74.14A23.684 24.138 0 0 1 73.543 50" style="opacity:.98;fill:#000;fill-opacity:1;stroke-width:46.3438" transform="scale(.26458)"/></svg>