<svg xmlns="http://www.w3.org/2000/svg" xmlns:xlink="http://www.w3.org/1999/xlink" xml:space="preserve" width="1000" height="562" viewBox="0 0 264.583 148.696"><defs><radialGradient xlink:href="#a" id="b" cx="26.375" cy="97.114" r="132.292" fx="26.375" fy="97.114" gradientTransform="matrix(0 1.15153 -2.00992 0 221.566 -12.968)" gradientUnits="userSpaceOnUse"/><linearGradient id="a"><stop offset="0" style="stop-color:#fff;stop-opacity:1"/><stop offset="1" style="stop-color:#ededed;stop-opacity:1"/></linearGradient></defs><path d="M0 0h264.583v148.696H0z" style="opacity:.98;fill:url(#b);fill-opacity:1;stroke-width:1.61952"/><g fill-rule="evenodd"><path d="M94.074 112.136H73.78V83.099H60.607v29.037h-20.92V37.298h20.92v27.839H73.78v-27.84h20.294z"/><path d="M407.038 146.258c22.746 0 41.186-18.482 41.186-41.287 0-22.8-18.44-41.285-41.186-41.285-22.75 0-41.188 18.485-41.188 41.285 0 22.805 18.438 41.287 41.188 41.287m-52.393-41.287c0-29.004 23.455-52.518 52.393-52.518 28.936 0 52.395 23.514 52.395 52.518 0 29.008-23.46 52.521-52.395 52.521-28.938 0-52.393-23.513-52.393-52.521m-72.955 0c6.483-.823 17.29-8.254 21.097-12.996-1.338 5.88-1.44 22.9.124 28.781-4.346-6.705-14.634-14.96-21.221-15.785m-37.666-55.6c8.233 0 14.717 8.147 14.717 17.432s-6.484 17.438-14.717 17.438h-28.3V49.37Zm-.104 77.47c8.233 0 14.718 8.152 14.718 17.434 0 9.286-6.485 17.435-14.718 17.435h-28.3v-34.87zm163.083 83.95c57.665-.023 104.591-48.05 104.578-105.861C511.57 45.9 464.668.044 407.003 0c-57.598-.042-87.027 42.458-94.299 59.613.068-25.752-25.253-56.148-54.871-56.18h-95.426v206.33l88.97.018c35.87 0 61.394-31.156 61.437-57.873 8.188 16.814 36.591 58.903 94.19 58.883" style="stroke-width:1.01668" transform="translate(39.687 36.192)scale(.36203)"/></g><path d="M40 25a15 16 0 0 0-15 16v480a15 16 0 0 0 15 16h920a15 16 0 0 0 15-16V41a15 16 0 0 0-15-16zm12.5 12.5h895a15 16 0 0 1 15 16v455a15 16 0 0 1-15 16h-895a15 16 0 0 1-15-16v-455a15 16 0 0 1 15-16" style="fill:#000;fill-opacity:1;opacity:.98;stroke-width:85.9894" transform="scale(.26458)"/></svg>