<svg xmlns="http://www.w3.org/2000/svg" xmlns:xlink="http://www.w3.org/1999/xlink" xml:space="preserve" id="svg8" width="1000" height="562" viewBox="0 0 264.583 148.696"><defs id="defs2"><radialGradient xlink:href="#linearGradient847" id="radialGradient849" cx="26.375" cy="97.114" r="132.292" fx="26.375" fy="97.114" gradientTransform="matrix(0 1.15153 -2.00992 0 221.566 -12.968)" gradientUnits="userSpaceOnUse"/><linearGradient id="linearGradient847"><stop id="stop843" offset="0" style="stop-color:#fff;stop-opacity:1"/><stop id="stop845" offset="1" style="stop-color:#ededed;stop-opacity:1"/></linearGradient><style id="style339">.cls-2{fill:#fff}</style></defs><g id="layer1"><path id="background" d="M0 0h264.583v148.696H0z" style="opacity:.98;fill:url(#radialGradient849);fill-opacity:1;stroke-width:1.61952"/><g id="logo" transform="translate(79.375 21.431)scale(.1323)"><g id="DR1"><path id="path345" d="M0 0v800h800V0Z" style="fill:#ff001e"/></g><g id="Koncernlogo"><path id="rect348" d="M0 560h800v240H0z"/><path id="path350" d="M319.27 618.67h-171.2a2.07 2.07 0 0 0-2.28 2.27v115.3a2.09 2.09 0 0 0 2.28 2.29h171.2c50.29 0 75.67-16.71 75.67-60.31 0-43.3-25.38-59.55-75.67-59.55m-44.33 97.83h-53.63c-1.52 0-1.83-.61-1.83-1.83v-72.16c0-1.2.31-1.82 1.83-1.82h53.63c31.89 0 44.66 9.11 44.66 37.83s-12.77 37.98-44.66 37.98" class="cls-2"/><path id="path352" d="m665 733.67-49.52-34.94c-1.22-.92-2-1.37-2-2s.46-.92 1.53-.92c25 0 44.5-11.69 44.5-37.51s-16.65-39.63-47.51-39.63H424.4a2.06 2.06 0 0 0-2.27 2.27v115.3a2.08 2.08 0 0 0 2.27 2.29h69a2.08 2.08 0 0 0 2.28-2.29V708.9c0-1.37.46-1.82 1.83-1.82h39.73c2 0 2.73.15 4.1 1.22l34.49 28.56a6.6 6.6 0 0 0 4.85 1.67h85.84q1.83 0 1.83-1.38c.04-1.21-2.09-2.57-3.35-3.48m-107.54-48h-59.81c-1.37 0-1.83-.46-1.83-1.82v-41.34c0-1.36.46-1.82 1.83-1.82h59.85c20.06 0 28.56 5.48 28.56 22 0 16.74-8.5 22.97-28.56 22.97z" class="cls-2"/></g><g id="_1" data-name="1"><path id="path355" d="M530 355.72v74.81H285v-74.81h83.3V191.3h-65v-69.88h148.77v234.3z" class="cls-2"/></g></g><path id="border" d="M40 25a15 16 0 0 0-15 16v480a15 16 0 0 0 15 16h920a15 16 0 0 0 15-16V41a15 16 0 0 0-15-16zm12.5 12.5h895a15 16 0 0 1 15 16v455a15 16 0 0 1-15 16h-895a15 16 0 0 1-15-16v-455a15 16 0 0 1 15-16" style="fill:#ff001e;fill-opacity:1;opacity:.98;stroke-width:85.9894" transform="scale(.26458)"/></g></svg>