<svg xmlns="http://www.w3.org/2000/svg" xmlns:xlink="http://www.w3.org/1999/xlink" xml:space="preserve" width="1000" height="1500" viewBox="0 0 264.583 396.875"><defs><radialGradient xlink:href="#a" id="b" cx="26.375" cy="97.114" r="132.292" fx="26.375" fy="97.114" gradientTransform="matrix(0 3.07349 -2.00992 0 221.566 -34.611)" gradientUnits="userSpaceOnUse"/><linearGradient id="a"><stop offset="0" style="stop-color:#282828;stop-opacity:1"/><stop offset="1" style="stop-color:#191919;stop-opacity:1"/></linearGradient></defs><path d="M0 0h264.583v396.875H0z" style="opacity:.98;fill:url(#b);fill-opacity:1;stroke-width:2.64583"/><path d="M201.876 165.551c-5.07-4.844-11.904-7.481-18.87-7.73-6.95-.258-13.974 1.785-19.653 5.807-4.971 3.522-8.827 8.467-11.477 13.914-3.258-2.876-6.628-5.661-10.699-7.307-3.781-1.537-8.363-2.246-12.214-.51-1.742.782-3.243 2.058-4.204 3.715-.972 1.688-1.367 3.7-1.155 5.637a7.98 7.98 0 0 0 2.374 4.871c1.419 1.382 3.223 2.286 5.042 3.027 2.09.854 4.26 1.464 6.414 2.118 2.055.627 4.1 1.272 6.109 2.034 3.882 1.477 7.7 3.41 10.715 6.321 6.038 5.859 7.988 14.74 6.975 22.889a28.8 28.8 0 0 1-2.277 8.236c-.063.131-.157.385-.157.385s.489.536.706.744c.68.68 1.4 1.33 2.144 1.948a32.4 32.4 0 0 0 9.226 5.325c6.638 2.491 14.127 2.873 20.874.574 3.782-1.292 7.334-3.426 10.127-6.309v6.7h23.02v-79.049h-23.02zm-15.346 52.615c-3.597 0-7.008-1.434-9.682-3.789-2.877-2.524-4.844-5.962-5.906-9.622-2.154-7.459-.403-16.232 5.228-21.764 2.643-2.595 6.118-4.216 9.84-4.325 3.726-.118 7.399 1.27 10.235 3.674 4.924 4.182 7.177 10.988 6.864 17.324-.32 6.363-3.33 12.85-8.876 16.29a14.7 14.7 0 0 1-7.703 2.212m-70.269-12.8a42 42 0 0 1-3.176-1.398c-1.954-.976-3.836-2.13-5.532-3.523-3.101-2.573-5.372-5.944-6.724-9.735-1.383-3.88-1.873-8.107-1.627-12.215.254-4.391 1.434-8.718 3.611-12.554 1.707-3.01 3.97-5.684 6.614-7.912-4.883 0-23.19.008-23.19.008s-.038 24.459-.038 34.204v7.299c0 2.262-.048 4.532-.321 6.778-.497 3.99-1.79 8.637-5.554 10.742-1.821 1.019-3.946 1.323-6.01 1.248-2.07-.069-4.164-.598-5.827-1.88-3.298-2.534-4.336-7.084-4.703-11.013-.213-2.177-.213-4.364-.213-6.544v-40.834l-23.867-.012s.017 32.548-.015 42.294c-.014 4.739.054 9.511 1.04 14.165.859 4.11 2.39 8.12 4.762 11.595 2.293 3.374 5.37 6.12 8.913 8.12 3.806 2.157 8.07 3.4 12.387 4.031 4.336.637 8.796.718 13.16.345 4.173-.36 8.327-1.205 12.194-2.812 3.678-1.531 7.02-3.756 9.717-6.69 2.567-2.8 4.507-6.136 5.796-9.698.103-.288.205-.585.3-.872 2.84 2.797 5.957 5.394 9.525 7.21 3.506 1.799 7.62 2.865 11.564 2.17 1.95-.345 3.821-1.18 5.254-2.556 1.37-1.303 2.275-3.04 2.604-4.897.308-1.753.142-3.61-.637-5.228-.72-1.485-1.91-2.69-3.273-3.609-1.964-1.341-4.295-2.16-6.557-2.897-2.518-.821-6.29-1.925-7.193-2.24-.916-.31-2.487-.89-2.984-1.09" style="fill:#d91e25;fill-opacity:1;fill-rule:nonzero;stroke:none;stroke-width:.0146642"/><path d="M49.832 25A25 25 0 0 0 25 50v1400a25 25 0 0 0 25 25h900a25 25 0 0 0 25-25V50a25 25 0 0 0-25-25zm23.711 25a23.684 24.138 0 0 1 .14 0h852.633A23.684 24.138 0 0 1 950 74.139V1425.86a23.684 24.138 0 0 1-23.684 24.14H73.684A23.684 24.138 0 0 1 50 1425.861V74.14A23.684 24.138 0 0 1 73.543 50" style="opacity:.98;fill:#d91e25;fill-opacity:1;stroke-width:46.3438" transform="scale(.26458)"/></svg>