<svg xmlns="http://www.w3.org/2000/svg" xmlns:xlink="http://www.w3.org/1999/xlink" xml:space="preserve" width="1000" height="562" viewBox="0 0 264.583 148.696"><defs><radialGradient xlink:href="#a" id="b" cx="26.375" cy="97.114" r="132.292" fx="26.375" fy="97.114" gradientTransform="matrix(0 1.15153 -2.00992 0 221.566 -12.968)" gradientUnits="userSpaceOnUse"/><linearGradient id="a"><stop offset="0" style="stop-color:#282828;stop-opacity:1"/><stop offset="1" style="stop-color:#191919;stop-opacity:1"/></linearGradient></defs><path d="M0 0h264.583v148.696H0z" style="opacity:.98;fill:url(#b);fill-opacity:1;stroke-width:1.61952"/><path d="M225.07 157.33c-6.758-6.056-15.872-9.352-25.159-9.664-9.266-.322-18.633 2.232-26.204 7.26-6.629 4.402-11.77 10.583-15.302 17.392-4.344-3.595-8.838-7.077-14.266-9.134-5.042-1.921-11.15-2.807-16.285-.638-2.323.978-4.324 2.573-5.606 4.645a11.08 11.08 0 0 0-1.54 7.046c.277 2.341 1.372 4.44 3.166 6.09 1.891 1.726 4.296 2.856 6.723 3.782 2.785 1.068 5.68 1.83 8.552 2.647 2.74.784 5.466 1.59 8.144 2.544 5.177 1.846 10.268 4.262 14.287 7.9 8.05 7.324 10.65 18.425 9.3 28.611a34.1 34.1 0 0 1-3.036 10.295 7 7 0 0 0-.21.482s.652.67.942.93a41 41 0 0 0 2.86 2.435c3.662 2.843 7.844 5.082 12.3 6.656 8.85 3.115 18.836 3.592 27.832.718 5.043-1.615 9.778-4.283 13.503-7.886v8.375h30.693v-98.811H225.07zm-20.46 65.768c-4.796 0-9.345-1.792-12.91-4.736-3.836-3.155-6.458-7.452-7.874-12.028-2.872-9.323-.538-20.29 6.97-27.205 3.524-3.243 8.157-5.27 13.12-5.406 4.968-.147 9.865 1.587 13.647 4.592 6.565 5.228 9.569 13.736 9.152 21.655-.428 7.955-4.44 16.063-11.835 20.364a20.6 20.6 0 0 1-10.27 2.764m-93.692-16a57 57 0 0 1-4.236-1.747c-2.605-1.22-5.114-2.662-7.376-4.404-4.134-3.216-7.162-7.43-8.964-12.17-1.845-4.848-2.498-10.132-2.17-15.267.339-5.49 1.913-10.899 4.815-15.694 2.276-3.763 5.293-7.104 8.819-9.889-6.512 0-30.921.01-30.921.01s-.05 30.574-.05 42.755v9.123c0 2.828-.064 5.666-.429 8.473-.662 4.988-2.386 10.797-7.404 13.429-2.43 1.272-5.262 1.653-8.013 1.559-2.761-.086-5.553-.747-7.77-2.35-4.397-3.167-5.782-8.855-6.271-13.767-.283-2.72-.283-5.454-.283-8.18v-51.042l-31.823-.014s.022 40.685-.02 52.867c-.02 5.924.071 11.89 1.387 17.707 1.144 5.137 3.185 10.15 6.348 14.494 3.058 4.217 7.16 7.65 11.885 10.15 5.074 2.696 10.76 4.25 16.515 5.039 5.782.796 11.728.897 17.547.431 5.564-.451 11.103-1.506 16.26-3.515 4.902-1.914 9.36-4.696 12.954-8.362 3.424-3.5 6.01-7.67 7.728-12.123.138-.36.275-.731.401-1.091 3.785 3.496 7.943 6.743 12.699 9.014 4.675 2.248 10.162 3.58 15.42 2.711 2.6-.431 5.094-1.473 7.005-3.195a10.93 10.93 0 0 0 3.471-6.12c.412-2.192.19-4.514-.848-6.535-.96-1.857-2.547-3.363-4.365-4.512-2.619-1.676-5.727-2.7-8.743-3.621-3.356-1.027-8.387-2.406-9.59-2.8a114 114 0 0 1-3.978-1.363" style="fill:#d91e25;fill-opacity:1;fill-rule:nonzero;stroke:none;stroke-width:.0189313" transform="matrix(.75 0 0 .8 33.073 -84.402)"/><path d="M40 25a15 16 0 0 0-15 16v480a15 16 0 0 0 15 16h920a15 16 0 0 0 15-16V41a15 16 0 0 0-15-16Zm12.5 12.5h895a15 16 0 0 1 15 16v455a15 16 0 0 1-15 16h-895a15 16 0 0 1-15-16v-455a15 16 0 0 1 15-16" style="display:inline;opacity:.98;fill:#d91e25;fill-opacity:1;stroke-width:85.9894" transform="scale(.26458)"/></svg>