<svg xmlns="http://www.w3.org/2000/svg" xmlns:xlink="http://www.w3.org/1999/xlink" width="1000" height="1500" viewBox="0 0 264.583 396.875"><defs><radialGradient xlink:href="#a" id="b" cx="26.375" cy="97.114" r="132.292" fx="26.375" fy="97.114" gradientTransform="matrix(0 3.07349 -2.00992 0 221.566 -34.611)" gradientUnits="userSpaceOnUse"/><linearGradient id="a"><stop offset="0" style="stop-color:#282828;stop-opacity:1"/><stop offset="1" style="stop-color:#191919;stop-opacity:1"/></linearGradient></defs><path d="M0 0h264.583v396.875H0z" style="opacity:.98;fill:url(#b);fill-opacity:1;stroke-width:2.64583"/><path d="M49.832 25A25 25 0 0 0 25 50v1400a25 25 0 0 0 25 25h900a25 25 0 0 0 25-25V50a25 25 0 0 0-25-25zm23.711 25a23.684 24.138 0 0 1 .14 0h852.633A23.684 24.138 0 0 1 950 74.139V1425.86a23.684 24.138 0 0 1-23.684 24.14H73.684A23.684 24.138 0 0 1 50 1425.861V74.14A23.684 24.138 0 0 1 73.543 50" style="opacity:.98;fill:#eb2d37;fill-opacity:1;stroke-width:46.3438" transform="scale(.26458)"/><path d="m216.64 0-21.307 511.735H17.405L0 0z" style="fill:#eb2d2e" transform="translate(103.671 105.833)scale(.26422)"/><path d="M43.581 478.12h128.24v-66.05h-54.774V265.206H180.5v-65.983h-62.203v-94.65H185.5V33.628H34.853z" style="fill:#fff" transform="translate(103.671 105.833)scale(.26422)"/><path d="M18.69 547.831h176.772v153.131H18.69z" style="fill:#eb2d2e" transform="translate(103.671 105.833)scale(.26422)"/></svg>