<svg xmlns="http://www.w3.org/2000/svg" xmlns:xlink="http://www.w3.org/1999/xlink" width="1000" height="562" viewBox="0 0 264.583 148.696"><defs><radialGradient xlink:href="#a" id="b" cx="26.375" cy="97.114" r="132.292" fx="26.375" fy="97.114" gradientTransform="matrix(0 1.15153 -2.00992 0 221.566 -12.968)" gradientUnits="userSpaceOnUse"/><linearGradient id="a"><stop offset="0" style="stop-color:#282828;stop-opacity:1"/><stop offset="1" style="stop-color:#191919;stop-opacity:1"/></linearGradient></defs><path d="M0 0h264.583v148.696H0z" style="opacity:.98;fill:url(#b);fill-opacity:1;stroke-width:1.61952"/><path d="M40 25a15 16 0 0 0-15 16v480a15 16 0 0 0 15 16h920a15 16 0 0 0 15-16V41a15 16 0 0 0-15-16zm12.5 12.5h895a15 16 0 0 1 15 16v455a15 16 0 0 1-15 16h-895a15 16 0 0 1-15-16v-455a15 16 0 0 1 15-16" style="opacity:.98;fill:#eb2d37;fill-opacity:1;stroke-width:85.9894" transform="scale(.26458)"/><path d="m216.64 0-21.307 511.735H17.405L0 0z" style="fill:#eb2d2e" transform="translate(115.937 21.431)scale(.15098)"/><path d="M43.581 478.12h128.24v-66.05h-54.774V265.206H180.5v-65.983h-62.203v-94.65H185.5V33.628H34.853z" style="fill:#fff" transform="translate(115.937 21.431)scale(.15098)"/><path d="M18.69 547.831h176.772v153.131H18.69z" style="fill:#eb2d2e" transform="translate(115.937 21.431)scale(.15098)"/></svg>