<svg xmlns="http://www.w3.org/2000/svg" xmlns:xlink="http://www.w3.org/1999/xlink" xml:space="preserve" width="1000" height="1500" viewBox="0 0 264.583 396.875"><defs><radialGradient xlink:href="#a" id="b" cx="26.375" cy="97.114" r="132.292" fx="26.375" fy="97.114" gradientTransform="matrix(0 3.07349 -2.00992 0 221.566 -34.611)" gradientUnits="userSpaceOnUse"/><linearGradient id="a"><stop offset="0" style="stop-color:#fff;stop-opacity:1"/><stop offset="1" style="stop-color:#ededed;stop-opacity:1"/></linearGradient></defs><path d="M0 0h264.583v396.875H0z" style="opacity:.98;fill:url(#b);fill-opacity:1;stroke-width:2.64583"/><g fill="#c7c8c9" style="display:inline"><path d="m62.401 230.01 13.274-16.908 6.55 16.908H62.407Zm13.7-36.02-.206-.055.027.055h-8.915l-24.331 61.155h.227l-.023.064h8.798l6.835-18.542h26.262l7.262 18.48h.18l.025.063h9.479l-25.613-61.217zm16.048 7.206h20.901v53.733l-.02.091h.02v.193h8.315v-54.017h20.687v-7.194H92.148z"/><path d="m186.662 205.37-45.288-50.173c4.47-2.971 8.42-6.39 9.014-8.73.195-.765.007-1.305-.186-1.616-1.662-2.711-9.627.591-15.063 3.456l-4.663-5.175 3.912 5.569a75 75 0 0 0-1.456.818c-5.75 3.336-11.887 8.024-12.643 10.995-.19.762-.008 1.302.193 1.607 1.909 3.116 12.122-1.693 17.267-4.666a108 108 0 0 0 1.958-1.176l40.427 57.54-32.174 42.229h13.385s23.439-31.488 25.216-34.169c1.16 1.738 24.733 34.169 24.733 34.169h13.602l-31.45-42.923 29.14-38.979h-12.214l-23.718 31.228z"/></g><path fill="#b1242a" d="M66.958 198.739c.973 3.358 2.5 7.64 4.457 12.722l.063.174 5.178-6.792-5.004-12.301h-8.748l-23.216 60.58h.124l18.982-24.889-1.856-.003.012-.009-.012-.036 10.017-29.457z"/><path fill="#231f20" d="m80.163 234.777.027.07h.037l6.977 18.275h9.082l-19.632-48.284-5.18 6.792 6.26 16.604H58.796l-18.982 24.888h8.34l6.574-18.344h25.44z"/><path fill="#231f20" d="M71.347 211.375c-1.922-5.01-3.42-9.33-4.391-12.661l-10.024 29.5 1.908.01 12.605-16.573-.1-.274z"/><path fill="#b1242a" d="m122.399 199.661-22.307-7.25h-.145l-12.556 7.25h19.837v53.466h.055l7.943-30.25v-23.216h7.175zm-22.406-7.262.072.018m-.103-.018H87.37v.018h12.555l.04-.018h.001z"/><g fill="#231f20"><path d="m99.975 192.393-.01.004h.03zm-12.618 7.268h.008v-7.25h-.008Zm27.86 53.441v-30.25l-7.962 30.25Z"/><path d="m100.067 192.411-.075-.018h-.031l-.04.018zm35.023 7.25v-7.25h-35.023l22.307 7.25zm-47.72-7.25v7.25l12.555-7.25Z"/></g><path fill="#b1242a" d="m181.895 210.632-6.451 8.81a129 129 0 0 0 3.415 5.06l10.184 14.394 10.179 14.376h13.044l-30.373-42.638zm-37.456 42.656h6.698l10.754-14.803-23.247 14.803h5.791zm51.633-61.954 13.893-19.106h-11.676l-16.017 21.39a148 148 0 0 0-3.374 4.558l7.998 5.764 9.176-12.61z"/><path fill="#231f20" d="M178.923 198.181a108 108 0 0 0-3.1 4.631l-.033.05-56.067-62.035 49.578 70.578-31.023 41.895h.393l23.241-14.803 9.745-13.403c.786-1.097 2.042-2.96 3.753-5.618l11.51-15.514-8-5.76z"/><path fill="#b1242a" d="M130.57 156.924c-8.456 5.046-13.83 5.953-14.257 5.22l.022-.266c.434-1.724 4.564-5.742 11.355-9.8 8.457-5.034 13.837-5.939 14.264-5.212l-.023.278c-.436 1.715-4.563 5.734-11.36 9.776m12.883-10.959c-1.854-3.11-11.707 1.662-16.666 4.619-5.523 3.284-11.416 7.918-12.165 10.86-.185.758-.013 1.296.171 1.605 1.855 3.107 11.72-1.65 16.673-4.604 5.52-3.297 11.416-7.93 12.16-10.872.196-.759.016-1.285-.173-1.602"/><path fill="#b1242a" d="M129.828 155.16c-8.451 5.042-13.825 5.942-14.264 5.22-.43-.724 2.924-5.024 11.379-10.06 8.457-5.037 13.824-5.943 14.264-5.22.434.724-2.918 5.019-11.385 10.06m12.89-10.959c-1.849-3.106-11.714 1.658-16.667 4.608-4.956 2.96-13.837 9.355-11.992 12.47 1.86 3.11 11.713-1.66 16.673-4.607 4.954-2.955 13.837-9.367 11.985-12.469"/><path fill="#221b19" d="m127.847 152.33-2.515-3.563 1.322-.317 2.682 2.977z"/><path fill="#c7c8c9" d="m148.277 232.548-7.212-3.866-7.269 3.751 1.443-8.042-5.816-5.748 8.11-1.126 3.669-7.311 3.571 7.373 8.08 1.228-5.896 5.668 1.321 8.074z"/><path fill="#231f20" d="m131.747 230.505 6.705-3.45 6.451 3.448-9.41-9.67-3.745 9.67zm10.091-13.682-3.284-6.792-.049.102-.57 11.627 11.31-3.755.06-.04-7.46-1.145zm3.22 13.744.061.037"/><path fill="#b1242a" d="m131.747 230.505 3.745-9.67 9.41 9.67.144.076-1.212-7.368 5.435-5.232-11.31 3.759.57-11.627-3.346 6.637h-.02l-.023.047-7.392 1.014 2.049 2.03 2.403 2.257-.009.105-.446 8.302z"/><path d="M49.832 25A25 25 0 0 0 25 50v1400a25 25 0 0 0 25 25h900a25 25 0 0 0 25-25V50a25 25 0 0 0-25-25zm23.711 25a23.684 24.138 0 0 1 .14 0h852.633A23.684 24.138 0 0 1 950 74.139V1425.86a23.684 24.138 0 0 1-23.684 24.14H73.684A23.684 24.138 0 0 1 50 1425.861V74.14A23.684 24.138 0 0 1 73.543 50" style="opacity:.98;fill:#b1242a;fill-opacity:1;stroke-width:46.3438" transform="scale(.26458)"/></svg>