<svg xmlns="http://www.w3.org/2000/svg" xmlns:xlink="http://www.w3.org/1999/xlink" xml:space="preserve" width="1000" height="562" viewBox="0 0 264.583 148.696"><defs><radialGradient xlink:href="#a" id="b" cx="26.375" cy="97.114" r="132.292" fx="26.375" fy="97.114" gradientTransform="matrix(0 1.15153 -2.00992 0 221.566 -12.968)" gradientUnits="userSpaceOnUse"/><linearGradient id="a"><stop offset="0" style="stop-color:#fff;stop-opacity:1"/><stop offset="1" style="stop-color:#ededed;stop-opacity:1"/></linearGradient></defs><path d="M0 0h264.583v148.696H0z" style="opacity:.98;fill:url(#b);fill-opacity:1;stroke-width:1.61952"/><g fill="#c7c8c9"><path d="m68.095 103.348 12.192-15.53 6.017 15.53H68.1ZM80.68 70.263l-.19-.05.024.05h-8.188l-22.349 56.172h.209l-.02.059h8.08l6.278-17.032h24.123l6.67 16.975h.165l.023.058h8.706l-23.525-56.23zm14.74 6.619h19.198v49.354l-.019.085h.019v.177h7.637V76.882h19.001v-6.608H95.419z"/><path d="M182.232 80.715 140.634 34.63c4.105-2.729 7.734-5.868 8.28-8.018.178-.703.006-1.2-.171-1.485-1.526-2.49-8.843.543-13.836 3.175l-4.284-4.753 3.594 5.114a68 68 0 0 0-1.338.752c-5.281 3.064-10.918 7.37-11.612 10.1-.175.699-.007 1.195.177 1.475 1.754 2.863 11.134-1.555 15.86-4.285a101 101 0 0 0 1.799-1.08l37.133 52.851-29.553 38.789h12.295s21.53-28.923 23.161-31.385c1.066 1.596 22.718 31.385 22.718 31.385h12.494l-28.888-39.426 26.767-35.803h-11.22l-21.785 28.683z"/></g><path fill="#b1242a" d="M72.28 74.624c.895 3.085 2.297 7.018 4.094 11.686l.059.16 4.755-6.238-4.595-11.3h-8.036l-21.325 55.644h.115l17.435-22.86-1.705-.003.012-.008-.012-.034 9.201-27.057z"/><path fill="#231f20" d="m84.41 107.726.025.064h.034l6.408 16.787h8.343l-18.033-44.35-4.757 6.239 5.75 15.251H64.783l-17.436 22.86h7.66l6.04-16.85h23.366z"/><path fill="#231f20" d="M76.312 86.23c-1.765-4.6-3.14-8.569-4.033-11.628l-9.207 27.097 1.752.009 11.578-15.223-.092-.252z"/><path fill="#b1242a" d="m123.205 75.472-20.49-6.66h-.133l-11.532 6.66h18.22v49.11h.05l7.296-27.785V75.472h6.591zm-20.58-6.671.065.017m-.094-.017H91.03v.017h11.532l.038-.017z"/><g fill="#231f20"><path d="m102.608 68.796-.01.003h.028zm-11.59 6.676h.008v-6.66h-.008Zm25.59 49.087V96.774l-7.313 27.785Z"/><path d="m102.693 68.813-.07-.017h-.028l-.037.017zm32.169 6.659v-6.66h-32.17l20.49 6.66z"/><path d="M91.03 68.813v6.659l11.532-6.66Z"/></g><path fill="#b1242a" d="m177.853 85.548-5.925 8.093c.505.795 1.03 1.578 1.55 2.357.527.772 1.051 1.535 1.587 2.29l9.355 13.222 9.348 13.205h11.982L177.852 85.55zm-34.404 39.182h6.153l9.878-13.597-21.354 13.596h5.32zm47.427-56.907 12.76-17.549h-10.725l-14.71 19.648a136 136 0 0 0-3.1 4.186l7.346 5.294 8.428-11.583z"/><path fill="#231f20" d="M175.124 74.113a99 99 0 0 0-2.848 4.253l-.03.045-51.499-56.98 45.54 64.828-28.497 38.482h.361l21.348-13.597 8.95-12.312c.722-1.007 1.877-2.717 3.448-5.16l10.571-14.25-7.347-5.29z"/><path fill="#b1242a" d="M130.71 36.217c-7.767 4.635-12.703 5.468-13.095 4.795l.02-.245c.399-1.584 4.192-5.274 10.43-9.002 7.768-4.623 12.71-5.454 13.102-4.787l-.021.256c-.4 1.575-4.192 5.266-10.435 8.979m11.834-10.066c-1.703-2.857-10.754 1.527-15.309 4.243-5.073 3.016-10.486 7.273-11.174 9.974-.169.697-.011 1.191.158 1.475 1.703 2.854 10.765-1.515 15.314-4.23 5.07-3.027 10.486-7.284 11.169-9.985.18-.697.015-1.18-.158-1.472"/><path fill="#b1242a" d="M130.029 34.596c-7.763 4.631-12.699 5.459-13.102 4.795-.395-.665 2.685-4.615 10.452-9.24 7.768-4.627 12.698-5.46 13.102-4.796.398.666-2.68 4.611-10.458 9.241m11.84-10.065c-1.698-2.854-10.76 1.522-15.309 4.232-4.553 2.719-12.71 8.593-11.015 11.453 1.709 2.857 10.76-1.524 15.314-4.23 4.55-2.715 12.71-8.605 11.01-11.454"/><path fill="#221b19" d="m128.209 31.997-2.31-3.272 1.214-.292 2.464 2.735z"/><path fill="#c7c8c9" d="m146.975 105.68-6.625-3.552-6.676 3.446 1.325-7.387-5.342-5.28 7.45-1.034 3.37-6.716 3.28 6.773 7.42 1.128-5.415 5.206z"/><path fill="#231f20" d="m131.791 103.803 6.16-3.17 5.925 3.168-8.644-8.883-3.44 8.883zm9.269-12.568-3.016-6.238-.045.094-.525 10.68 10.39-3.45.054-.037-6.852-1.051zm2.958 12.625.056.033"/><path fill="#b1242a" d="m131.791 103.803 3.44-8.883 8.644 8.883.132.07-1.113-6.768 4.992-4.806-10.39 3.453.525-10.68-3.073 6.096h-.019l-.02.043-6.79.932L130 94.008l2.207 2.073-.007.096-.41 7.626z"/><path d="M40 25a15 16 0 0 0-15 16v480a15 16 0 0 0 15 16h920a15 16 0 0 0 15-16V41a15 16 0 0 0-15-16zm12.5 12.5h895a15 16 0 0 1 15 16v455a15 16 0 0 1-15 16h-895a15 16 0 0 1-15-16v-455a15 16 0 0 1 15-16" style="fill:#b1242a;fill-opacity:1;opacity:.98;stroke-width:85.9894" transform="scale(.26458)"/></svg>