<svg xmlns="http://www.w3.org/2000/svg" xmlns:xlink="http://www.w3.org/1999/xlink" xml:space="preserve" width="1000" height="1500" viewBox="0 0 264.583 396.875"><defs><radialGradient xlink:href="#a" id="b" cx="26.375" cy="97.114" r="132.292" fx="26.375" fy="97.114" gradientTransform="matrix(0 3.07349 -2.00992 0 221.566 -34.611)" gradientUnits="userSpaceOnUse"/><linearGradient id="a"><stop offset="0" style="stop-color:#fff;stop-opacity:1"/><stop offset="1" style="stop-color:#ededed;stop-opacity:1"/></linearGradient></defs><path d="M0 0h264.583v396.875H0z" style="display:inline;opacity:.98;fill:url(#b);fill-opacity:1;stroke-width:2.64583"/><path fill="#131313" d="M119.767 278.724v-22.513l55.663-58.66q9.278-10.38 12.427-17.669t3.148-13.364q-.001-4.088-1.603-7.895a23.6 23.6 0 0 0-4.31-6.791 20.5 20.5 0 0 0-6.407-4.751q-3.698-1.768-8.23-1.768-7.95 0-13.47 4.97c-3.68 3.313-6.81 8.814-6.81 18.646H119.66c0-13.86 5.371-24.554 8.609-29.082s7.05-8.377 11.43-11.542c4.38-3.166 9.203-5.653 14.468-7.453q7.896-2.706 16.731-2.706 10.162 0 19.325 3.59 9.168 3.59 16.178 10.051 7.014 6.463 11.1 15.517 4.086 9.057 4.086 19.66 0 14.467-6.238 25.457-6.24 10.99-14.19 20.044l-37.838 39.097h61.575v27.167z"/><path fill="#eb0032" d="M100.879 223.758c0 16.896-13.7 30.595-30.596 30.595s-30.595-13.699-30.595-30.595 13.699-30.596 30.595-30.596c16.901 0 30.596 13.7 30.596 30.596"/><path d="M49.832 25A25 25 0 0 0 25 50v1400a25 25 0 0 0 25 25h900a25 25 0 0 0 25-25V50a25 25 0 0 0-25-25zm23.711 25a23.684 24.138 0 0 1 .14 0h852.633A23.684 24.138 0 0 1 950 74.139V1425.86a23.684 24.138 0 0 1-23.684 24.14H73.684A23.684 24.138 0 0 1 50 1425.861V74.14A23.684 24.138 0 0 1 73.543 50" style="display:inline;opacity:.98;fill:#eb0032;fill-opacity:1;stroke-width:46.3438" transform="scale(.26458)"/></svg>