<svg xmlns="http://www.w3.org/2000/svg" xmlns:xlink="http://www.w3.org/1999/xlink" xml:space="preserve" width="1000" height="1500" viewBox="0 0 264.583 396.875"><defs><radialGradient xlink:href="#a" id="b" cx="26.375" cy="97.114" r="132.292" fx="26.375" fy="97.114" gradientTransform="matrix(0 3.07349 -2.00992 0 221.566 -34.611)" gradientUnits="userSpaceOnUse"/><linearGradient id="a"><stop offset="0" style="stop-color:#fff;stop-opacity:1"/><stop offset="1" style="stop-color:#ededed;stop-opacity:1"/></linearGradient></defs><path d="M0 0h264.583v396.875H0z" style="opacity:.98;fill:url(#b);fill-opacity:1;stroke-width:2.64583"/><path fill="#0082fc" d="M99.364 221.367c0 16.48-13.36 29.84-29.838 29.84s-29.838-13.359-29.838-29.84c0-16.48 13.359-29.838 29.838-29.838 16.48 0 29.838 13.36 29.838 29.838"/><path fill="#131313" d="m115.048 253.259 21.644-18.053q4.894 6.85 12.451 11.253t16.477 4.405q5.548 0 10.82-2.121 5.279-2.121 9.354-5.82 4.078-3.7 6.527-8.92c1.631-3.48 2.444-7.29 2.444-11.42q0-5.983-2.339-11.255c-1.559-3.513-3.697-6.581-6.414-9.188-2.718-2.606-5.98-4.621-9.79-6.036q-5.712-2.121-12.128-2.121-9.79 0-18.704 4.46v-17.73l29.145-34.585h-52.092v-26.756h94.618v17.835l-28.276 34.803c10.658 4.132 19.339 10.624 26.049 19.467 6.704 8.848 10.062 19.217 10.062 31.105 0 8.336-1.526 15.881-4.566 22.619q-4.569 10.115-12.345 17.24-7.779 7.125-18.488 11.092-10.708 3.969-22.785 3.97-14.683 0-27.954-6.197c-8.848-4.126-16.755-10.14-23.71-18.047"/><path d="M49.832 25A25 25 0 0 0 25 50v1400a25 25 0 0 0 25 25h900a25 25 0 0 0 25-25V50a25 25 0 0 0-25-25zm23.711 25a23.684 24.138 0 0 1 .14 0h852.633A23.684 24.138 0 0 1 950 74.139V1425.86a23.684 24.138 0 0 1-23.684 24.14H73.684A23.684 24.138 0 0 1 50 1425.861V74.14A23.684 24.138 0 0 1 73.543 50" style="opacity:.98;fill:#0082fc;fill-opacity:1;stroke-width:46.3438" transform="scale(.26458)"/></svg>