<svg xmlns="http://www.w3.org/2000/svg" xmlns:xlink="http://www.w3.org/1999/xlink" xml:space="preserve" width="1000" height="1500" viewBox="0 0 264.583 396.875"><defs><radialGradient xlink:href="#a" id="b" cx="26.375" cy="97.114" r="132.292" fx="26.375" fy="97.114" gradientTransform="matrix(0 3.07349 -2.00992 0 221.566 -34.611)" gradientUnits="userSpaceOnUse"/><linearGradient id="a"><stop offset="0" style="stop-color:#fff;stop-opacity:1"/><stop offset="1" style="stop-color:#ededed;stop-opacity:1"/></linearGradient></defs><path d="M0 0h264.583v396.875H0z" style="opacity:.98;fill:url(#b);fill-opacity:1;stroke-width:2.64583"/><g style="fill:none"><path d="M39.496 22.364c14.47 8.43 19.413 27.036 11.078 41.608S23.727 83.522 9.258 75.127z" style="clip-rule:evenodd;fill:#fff;fill-rule:evenodd" transform="translate(67.469 105.833)scale(2.25864)"/><path d="M13.31 73.932c5.723 2.584 12.1 3.107 18.24 1.452 7.054-1.903 12.945-6.457 16.585-12.822 7.041-12.31 3.543-27.893-7.646-36.057zM24.415 82c-5.71 0-11.344-1.505-16.422-4.45l-2.438-1.416 32.949-57.498 2.436 1.42C56.655 29.213 62.069 49.55 53.009 65.39c-4.392 7.678-11.496 13.17-20.004 15.465A33 33 0 0 1 24.415 82" style="clip-rule:evenodd;fill:#232323;fill-rule:evenodd" transform="translate(67.469 105.833)scale(2.25864)"/><path d="M17.892 59.636C3.434 51.21-1.506 32.613 6.822 18.05 15.153 3.483 33.685-1.53 48.143 6.862Z" style="clip-rule:evenodd;fill:#5ae1ff;fill-rule:evenodd;fill-opacity:1" transform="translate(67.469 105.833)scale(2.25864)"/><path d="M32.991 5.662c-9.465 0-18.68 4.948-23.733 13.786-7.036 12.307-3.54 27.888 7.642 36.05L44.093 8.047A27 27 0 0 0 32.99 5.662M18.882 63.364l-2.434-1.42C.744 52.792-4.666 32.459 4.388 16.623 13.459.756 33.655-4.714 49.408 4.43l2.437 1.414z" style="clip-rule:evenodd;fill:#232323;fill-rule:evenodd" transform="translate(67.469 105.833)scale(2.25864)"/></g><path d="M49.832 25A25 25 0 0 0 25 50v1400a25 25 0 0 0 25 25h900a25 25 0 0 0 25-25V50a25 25 0 0 0-25-25zm23.711 25a23.684 24.138 0 0 1 .14 0h852.633A23.684 24.138 0 0 1 950 74.139V1425.86a23.684 24.138 0 0 1-23.684 24.14H73.684A23.684 24.138 0 0 1 50 1425.861V74.14A23.684 24.138 0 0 1 73.543 50" style="opacity:.98;fill:#5ae1ff;fill-opacity:1;stroke-width:46.3438" transform="scale(.26458)"/></svg>