<svg xmlns="http://www.w3.org/2000/svg" xmlns:xlink="http://www.w3.org/1999/xlink" xml:space="preserve" width="1000" height="562" viewBox="0 0 264.583 148.696"><defs><radialGradient xlink:href="#a" id="b" cx="26.375" cy="97.114" r="132.292" fx="26.375" fy="97.114" gradientTransform="matrix(0 1.15153 -2.00992 0 221.566 -12.968)" gradientUnits="userSpaceOnUse"/><linearGradient id="a"><stop offset="0" style="stop-color:#fff;stop-opacity:1"/><stop offset="1" style="stop-color:#ededed;stop-opacity:1"/></linearGradient></defs><path d="M0 0h264.583v148.696H0z" style="opacity:.98;fill:url(#b);fill-opacity:1;stroke-width:1.61952"/><g style="fill:#282828;fill-opacity:1;stroke:none"><path d="M64.616 130.42v-9.012h2.322v.725a3.98 3.98 0 0 1 2.546-.91 4.06 4.06 0 0 1 3.122 1.449c.594.706.929 1.616.929 3.158v4.59h-2.416v-4.775c0-.892-.204-1.357-.539-1.691-.315-.316-.799-.502-1.356-.502-1.022 0-1.858.65-2.193 1.115v5.853zm28.195-1.43c-.873 1.04-2.304 1.616-3.698 1.616-2.694 0-4.72-1.858-4.72-4.682 0-2.509 1.71-4.702 4.386-4.702 2.49 0 4.255 2.1 4.255 4.609 0 .241-.018.483-.056.687h-6.243c.13 1.264 1.152 2.137 2.434 2.137 1.022 0 1.84-.576 2.267-1.04zm-2.248-4.237c-.074-.8-.8-1.58-1.784-1.58-1.004 0-1.821.762-1.933 1.58zM62.65 130.42h-2.322v-.724a3.77 3.77 0 0 1-2.509.91c-1.338 0-2.601-.594-3.4-1.524a4.84 4.84 0 0 1-1.152-3.158c0-2.658 1.97-4.702 4.422-4.702 1.022 0 1.933.335 2.639.91v-.724h2.323zm-2.415-5.853a2.77 2.77 0 0 0-2.23-1.115c-1.412 0-2.323 1.17-2.323 2.472 0 1.412 1.022 2.452 2.379 2.452.91 0 1.71-.445 2.174-1.115zm23.605 4.013c-1.059 1.413-2.397 2.026-4.088 2.026-2.787 0-4.831-2.081-4.831-4.682 0-2.62 2.1-4.702 4.85-4.702 1.56 0 2.954.725 3.79 1.803l-1.709 1.505c-.483-.632-1.208-1.078-2.081-1.078-1.394 0-2.434 1.096-2.434 2.472 0 1.412 1.022 2.452 2.49 2.452.984 0 1.765-.594 2.155-1.19zm-30.945-5.035c-.167-.056-.52-.093-.873-.093-1.06 0-1.895.762-2.193 1.3v5.669h-2.416v-9.013h2.323v.91c.54-.669 1.524-1.096 2.62-1.096.353 0 .558.037.818.074zm-6.968-4.274a3 3 0 0 0-.725-.093c-.595 0-1.06.168-1.356.52-.205.26-.335.595-.335 1.431v.279h2.787v2.044h-2.787v6.968h-2.416v-6.968h-2.322v-2.044h2.322v-.372c0-1.45.335-2.322.967-2.936s1.579-1.059 2.806-1.059c.483 0 .928.037 1.43.167zm54.313 6.643a2.461 2.461 0 1 1-4.923 0 2.461 2.461 0 0 1 4.923 0m5.374-4.506v-2.509h-2.416v2.509h-2.322v2.044h2.322v3.16c0 1.281.204 2.08.669 2.694.613.817 1.672 1.3 3.122 1.3.464 0 1.189-.074 1.505-.186l-.372-2.044a6 6 0 0 1-.985.093c-.594 0-.985-.167-1.226-.446-.205-.241-.297-.576-.297-1.133v-3.438h2.972l3.204 6.968h1.673l4.144-9.012h-2.509l-2.472 5.5-2.47-5.5zm16.512 3.755c-1.048-.291-1.953-.543-1.953-1.268 0-.865.884-1.317 1.756-1.317.87 0 1.363.218 2.08.677l.14.09.749-1.172-.134-.09a5.2 5.2 0 0 0-2.892-.867c-1.533 0-3.118 1.01-3.118 2.698 0 1.72 1.539 2.135 2.896 2.502 1.133.307 2.111.571 2.111 1.477 0 .773-.788 1.356-1.832 1.356-1.098 0-1.976-.548-2.52-1.007l-.13-.111-.87 1.093.114.105c.893.826 2.13 1.282 3.482 1.282 1.84 0 3.174-1.167 3.174-2.775 0-1.824-1.692-2.295-3.053-2.673m15.074-2.797a4.45 4.45 0 0 0-3.012-1.15c-1.036 0-2.08.367-2.868 1.01-1.066.902-1.678 2.246-1.678 3.687 0 1.593.7 2.996 1.917 3.848.793.564 1.696.85 2.686.85 1.156 0 2.228-.434 2.955-1.18v.99h1.38v-9.015h-1.38zm-.038 1.842v3.26c-.665 1.116-1.76 1.781-2.936 1.781-.644 0-1.272-.208-1.865-.617-.814-.573-1.3-1.59-1.3-2.719 0-1.065.422-2.024 1.157-2.63a3.2 3.2 0 0 1 1.989-.705c1.437 0 2.54.96 2.955 1.63m6.36.955c-1.048-.291-1.953-.543-1.953-1.268 0-.865.883-1.317 1.756-1.317.87 0 1.363.218 2.08.677l.14.09.749-1.172-.135-.09a5.2 5.2 0 0 0-2.892-.867c-1.532 0-3.117 1.01-3.117 2.698 0 1.72 1.538 2.135 2.895 2.502 1.133.307 2.111.571 2.111 1.477 0 .773-.787 1.356-1.831 1.356-1.098 0-1.976-.548-2.52-1.007l-.131-.111-.87 1.093.114.105c.894.826 2.13 1.282 3.483 1.282 1.84 0 3.174-1.167 3.174-2.775 0-1.824-1.693-2.295-3.053-2.673m12.024-2.413c-.721-.975-1.894-1.534-3.218-1.534-1.133 0-2.17.395-2.86 1.075v-4.513h-1.418v12.642h1.418v-6.155c.642-1.073 1.675-1.687 2.841-1.687.879 0 1.655.396 2.129 1.09.241.346.465.833.465 2.036v4.716h1.418v-4.792c0-1.54-.31-2.265-.775-2.879m-28.892 7.671h1.42v-12.642h-1.42z" style="fill:#282828;fill-opacity:1;fill-rule:nonzero;stroke:none;stroke-width:.352778" transform="translate(-21.402 -120.751)scale(1.57559)"/></g><path d="M40 25a15 16 0 0 0-15 16v480a15 16 0 0 0 15 16h920a15 16 0 0 0 15-16V41a15 16 0 0 0-15-16zm12.5 12.5h895a15 16 0 0 1 15 16v455a15 16 0 0 1-15 16h-895a15 16 0 0 1-15-16v-455a15 16 0 0 1 15-16" style="fill:#282828;fill-opacity:1;opacity:.98;stroke-width:85.9894" transform="scale(.26458)"/></svg>