<svg xmlns="http://www.w3.org/2000/svg" xmlns:xlink="http://www.w3.org/1999/xlink" xml:space="preserve" width="1000" height="1500" viewBox="0 0 264.583 396.875"><defs><radialGradient xlink:href="#a" id="b" cx="26.375" cy="97.114" r="132.292" fx="26.375" fy="97.114" gradientTransform="matrix(0 3.07349 -2.00992 0 221.566 -34.611)" gradientUnits="userSpaceOnUse"/><linearGradient id="a"><stop offset="0" style="stop-color:#fff;stop-opacity:1"/><stop offset="1" style="stop-color:#ededed;stop-opacity:1"/></linearGradient></defs><path d="M0 0h264.583v396.875H0z" style="opacity:.98;fill:url(#b);fill-opacity:1;stroke-width:2.64583"/><g transform="translate(39.688 127.185)scale(.68217)"><path d="M204.2 131V57l-48.5 74zM244.5 0v131h27v35.8h-27v42.1h-40.3v-42.1h-93.9v-31.9L198.7 0Z" style="fill:#232323"/><circle cx="39.5" cy="136.5" r="39.5" style="fill:#8c1eaa"/></g><path d="M49.832 25A25 25 0 0 0 25 50v1400a25 25 0 0 0 25 25h900a25 25 0 0 0 25-25V50a25 25 0 0 0-25-25zm23.711 25a23.684 24.138 0 0 1 .14 0h852.633A23.684 24.138 0 0 1 950 74.139V1425.86a23.684 24.138 0 0 1-23.684 24.14H73.684A23.684 24.138 0 0 1 50 1425.861V74.14A23.684 24.138 0 0 1 73.543 50" style="opacity:.98;fill:#8c1eaa;fill-opacity:1;stroke-width:46.3438" transform="scale(.26458)"/></svg>