<svg xmlns="http://www.w3.org/2000/svg" xmlns:xlink="http://www.w3.org/1999/xlink" xml:space="preserve" width="1000" height="562" viewBox="0 0 264.583 148.696"><defs><radialGradient xlink:href="#a" id="b" cx="26.375" cy="97.114" r="132.292" fx="26.375" fy="97.114" gradientTransform="matrix(0 1.15153 -2.00992 0 221.566 -12.968)" gradientUnits="userSpaceOnUse"/><linearGradient id="a"><stop offset="0" style="stop-color:#fff;stop-opacity:1"/><stop offset="1" style="stop-color:#ededed;stop-opacity:1"/></linearGradient></defs><path d="M0 0h264.583v148.696H0z" style="opacity:.98;fill:url(#b);fill-opacity:1;stroke-width:1.61952"/><path d="M164.943 92.926a1.82 1.82 0 1 1-3.64 0 1.82 1.82 0 0 1 3.64 0" style="fill:#8c1eaa;fill-opacity:1;fill-rule:nonzero;stroke:none;stroke-width:.352778" transform="translate(-367.912 -237.33)scale(3.41076)"/><path d="M172.562 86.641v6.031h1.243v1.649h-1.243v1.936h-1.855v-1.936h-4.323v-1.47l4.07-6.21zm-1.855 6.031v-3.408l-2.232 3.408zm-32.099 3.586v-6.663h1.718v.536a2.94 2.94 0 0 1 1.881-.673c.92 0 1.759.412 2.308 1.071.44.522.687 1.195.687 2.335v3.394h-1.786v-3.53c0-.66-.151-1.004-.398-1.251-.234-.234-.59-.371-1.003-.371-.756 0-1.374.481-1.62.824v4.328zm19.182-4.19c-.055-.59-.591-1.168-1.32-1.168-.741 0-1.345.563-1.428 1.168zm1.662 3.132c-.646.77-1.704 1.195-2.734 1.195-1.992 0-3.49-1.374-3.49-3.462 0-1.854 1.265-3.475 3.243-3.475 1.84 0 3.146 1.552 3.146 3.406 0 .18-.014.358-.042.509h-4.615c.096.934.852 1.58 1.8 1.58.755 0 1.36-.426 1.675-.77zm-24.082-3.27a2.05 2.05 0 0 0-1.648-.824c-1.044 0-1.717.866-1.717 1.827 0 1.044.755 1.813 1.758 1.813.673 0 1.264-.33 1.607-.824zm1.786 4.328h-1.717v-.536a2.8 2.8 0 0 1-1.855.673c-.989 0-1.923-.44-2.514-1.127a3.58 3.58 0 0 1-.851-2.335c0-1.964 1.456-3.475 3.27-3.475a3.05 3.05 0 0 1 1.95.673v-.536h1.717zm15.664-1.36c-.783 1.043-1.772 1.497-3.022 1.497-2.06 0-3.572-1.539-3.572-3.462 0-1.937 1.553-3.475 3.586-3.475 1.154 0 2.184.536 2.802 1.332l-1.264 1.113c-.357-.467-.893-.797-1.538-.797-1.03 0-1.8.81-1.8 1.827 0 1.044.756 1.813 1.841 1.813.728 0 1.305-.439 1.593-.879zm-22.876-3.723c-.124-.041-.384-.069-.645-.069-.783 0-1.402.563-1.621.962v4.19h-1.786v-6.663h1.717v.673c.399-.494 1.126-.81 1.937-.81.26 0 .412.027.604.055zm-5.151-3.16a2.3 2.3 0 0 0-.536-.068c-.44 0-.783.124-1.003.385-.151.191-.247.44-.247 1.057v.206h2.06v1.511h-2.06v5.151h-1.786v-5.15h-1.717v-1.512h1.717v-.275c0-1.071.247-1.717.714-2.17.468-.453 1.168-.783 2.075-.783.357 0 .687.027 1.057.124z" style="fill:#232323;fill-opacity:1;fill-rule:nonzero;stroke:none;stroke-width:.352778" transform="translate(-367.912 -237.33)scale(3.41076)"/><path d="M40 25a15 16 0 0 0-15 16v480a15 16 0 0 0 15 16h920a15 16 0 0 0 15-16V41a15 16 0 0 0-15-16zm12.5 12.5h895a15 16 0 0 1 15 16v455a15 16 0 0 1-15 16h-895a15 16 0 0 1-15-16v-455a15 16 0 0 1 15-16" style="fill:#8c1eaa;fill-opacity:1;opacity:.98;stroke-width:85.9894" transform="scale(.26458)"/></svg>