<svg xmlns="http://www.w3.org/2000/svg" xmlns:xlink="http://www.w3.org/1999/xlink" xml:space="preserve" width="1000" height="1500" viewBox="0 0 264.583 396.875"><defs><radialGradient xlink:href="#a" id="b" cx="26.375" cy="97.114" r="132.292" fx="26.375" fy="97.114" gradientTransform="matrix(0 3.07349 -2.00992 0 221.566 -34.611)" gradientUnits="userSpaceOnUse"/><linearGradient id="a"><stop offset="0" style="stop-color:#fff;stop-opacity:1"/><stop offset="1" style="stop-color:#ededed;stop-opacity:1"/></linearGradient></defs><path d="M0 0h264.583v396.875H0z" style="opacity:.98;fill:url(#b);fill-opacity:1;stroke-width:2.64583"/><g fill-rule="evenodd" clip-rule="evenodd"><path d="m199.887 201.078-7.098 24.595h5.117l.743-3.135h6.603l.66 3.135h5.2l-7.18-24.595Zm2.063 6.685q0 .495.207 1.487.206.99.372 1.815l1.65 7.18h-4.539l1.733-7.18q.166-.826.37-1.815.209-.991.207-1.487m-25.75-6.767v24.677h4.952v-7.84h2.146l3.301 7.84h4.87l-3.467-8.83q1.569-1.074 2.56-2.931.99-1.857.99-4.25v-.578q0-3.466-2.106-5.778-2.103-2.31-5.405-2.31zm4.952 4.622h2.394q1.32 0 2.228.866.907.866.907 2.682v.166q0 2.064-.907 2.971-.908.908-2.228.908h-2.394zm8.254-34.334v24.677h7.923q1.897 0 3.507-.742a7.4 7.4 0 0 0 2.683-2.063q1.074-1.322 1.693-3.343t.619-4.333v-4.458q0-2.062-.62-3.878-.618-1.816-1.692-3.137a7 7 0 0 0-2.683-2.022q-1.61-.7-3.507-.701zm4.952 4.622h2.394q1.072 0 1.815.33t1.238.99q.577.744.825 1.733a9.3 9.3 0 0 1 .248 2.23v3.96q0 1.569-.248 2.765-.247 1.197-.825 2.023-.495.66-1.238 1.072t-1.815.413h-2.394zm-60.83-4.95q-1.731 0-3.011.453-1.28.455-2.354 1.198-1.567 1.402-2.476 3.713-.906 2.311-.907 5.778v2.97q0 3.551.907 5.943.91 2.393 2.476 3.632 1.074.826 2.354 1.28t3.011.453q1.57 0 2.849-.453a8.5 8.5 0 0 0 2.352-1.28q1.65-1.238 2.476-3.632.825-2.392.825-5.86v-3.053q0-3.466-.825-5.778-.825-2.31-2.476-3.713a10 10 0 0 0-2.352-1.198q-1.28-.453-2.849-.453m0 4.622q.745 0 1.322.248.578.247.99.741.578.661.907 2.023.331 1.361.331 3.672v2.807q0 2.312-.33 3.632t-.908 1.981q-.412.578-1.032.866-.619.289-1.28.288-.825 0-1.484-.288a2.55 2.55 0 0 1-1.074-.866q-.577-.66-.908-1.98-.33-1.322-.33-3.633v-2.807q0-2.31.33-3.672.331-1.362.908-2.023a2.5 2.5 0 0 1 1.074-.741 4.2 4.2 0 0 1 1.484-.248m84.186 25.418h-4.952v24.677h12.134v-4.54h-7.182zm-44.157-.003h-14.113v4.622h4.622v20.055h4.87v-20.055h4.621zm-16.589 24.68v-24.677h-4.54v14.444l-6.684-14.444h-4.292v24.677h4.456v-14.278l6.687 14.278zm-26.741-10.233h6.439v-4.623h-6.439v-5.199h7.595v-4.622h-12.546v24.677h12.546v-4.54h-7.595zm-17.83-9.079a2.06 2.06 0 0 1 1.031-.785 4.3 4.3 0 0 1 1.362-.206q.992 0 1.94.495.949.496 1.526 1.98l4.375-1.814q-1.073-2.808-3.177-4.127-2.105-1.32-4.664-1.32a8.5 8.5 0 0 0-2.93.494q-1.361.496-2.352 1.32-1.568 1.32-2.434 3.633-.869 2.31-.868 5.777v3.053q0 3.55.868 5.86.867 2.312 2.434 3.632.99.827 2.352 1.238 1.362.413 2.93.413 2.725 0 4.746-1.279t3.095-3.838l-4.375-1.981q-.578 1.485-1.484 1.981a4.1 4.1 0 0 1-1.982.495q-.743-.001-1.362-.206a2.05 2.05 0 0 1-1.031-.784q-.578-.577-.908-1.94t-.33-3.673v-2.724q0-2.476.33-3.796t.908-1.898m53.073-35.079h-4.622l-4.293 15.516-4.291-15.516h-4.706l-2.888 24.677h4.623l1.484-13.452 3.715 13.452h4.044l3.632-13.452 1.569 13.452h4.54zm11.555 14.446h7.18v-4.706h-7.18v-5.116h8.172v-4.622h-13.042v24.677h13.042v-4.54h-8.172zm42.258-14.448-4.127 7.757-3.96-7.757h-5.366l6.932 12.793v11.884h4.952v-11.884l6.934-12.793zm-106.886 5.287a2.56 2.56 0 0 1 1.031-.742 3.6 3.6 0 0 1 1.362-.248q.992 0 1.94.537.949.537 1.526 2.104l4.375-1.98q-1.073-2.808-3.177-4.045t-4.664-1.238a9.3 9.3 0 0 0-2.93.453q-1.361.455-2.352 1.198-1.568 1.403-2.434 3.714-.869 2.31-.868 5.778v2.97q0 3.55.868 5.943.867 2.394 2.434 3.632.99.825 2.352 1.28 1.362.453 2.93.452 2.725 0 4.746-1.278 2.022-1.28 3.095-3.92l-4.375-1.9q-.578 1.404-1.484 1.982a3.6 3.6 0 0 1-1.982.577 3.2 3.2 0 0 1-1.362-.289 2.6 2.6 0 0 1-1.031-.865q-.578-.66-.908-1.981-.33-1.32-.33-3.632v-2.807q0-2.31.33-3.672t.908-2.023"/><path fill="#fdc600" d="M75.014 202.727q-1.073 1.98-3.095 3.177a8.5 8.5 0 0 1-4.417 1.196q-3.548 0-6.066-2.516-2.516-2.518-2.516-6.066t2.516-6.108q2.518-2.558 6.066-2.558 2.394 0 4.417 1.278 2.022 1.28 3.095 3.177l6.685-3.796q-2.064-3.713-5.86-5.984-3.797-2.269-8.337-2.27a15.7 15.7 0 0 0-6.273 1.28q-2.971 1.28-5.158 3.466-2.187 2.189-3.466 5.159-1.28 2.971-1.28 6.356 0 3.382 1.28 6.355 1.28 2.97 3.466 5.158 2.188 2.188 5.158 3.466a15.7 15.7 0 0 0 6.273 1.28q4.458 0 8.295-2.312 3.837-2.31 5.902-5.942z"/><path fill="#fdc600" d="M99.444 198.355q0 6.603-2.518 12.464-2.518 5.86-6.81 10.192-4.292 4.334-10.15 6.85-5.862 2.518-12.464 2.518-8.914 0-16.301-4.54-7.386-4.538-11.513-11.885l6.685-3.632q3.054 5.447 8.748 8.832 5.697 3.384 12.38 3.384 4.954 0 9.41-1.9 4.456-1.896 7.717-5.158 3.26-3.26 5.2-7.675 1.94-4.414 1.94-9.45v.165q0-5.036-1.94-9.45-1.94-4.416-5.2-7.675-3.26-3.261-7.717-5.159t-9.41-1.899q-6.682 0-12.38 3.384-5.694 3.385-8.748 8.832l-6.685-3.632q4.126-7.346 11.513-11.885 7.388-4.54 16.3-4.54 6.604 0 12.465 2.518 5.86 2.516 10.15 6.85 4.293 4.333 6.81 10.192 2.518 5.862 2.518 12.464z"/></g><path d="M49.832 25A25 25 0 0 0 25 50v1400a25 25 0 0 0 25 25h900a25 25 0 0 0 25-25V50a25 25 0 0 0-25-25zm23.711 25a23.684 24.138 0 0 1 .14 0h852.633A23.684 24.138 0 0 1 950 74.139V1425.86a23.684 24.138 0 0 1-23.684 24.14H73.684A23.684 24.138 0 0 1 50 1425.861V74.14A23.684 24.138 0 0 1 73.543 50" style="opacity:.98;fill:#fdc600;fill-opacity:1;stroke-width:46.3438" transform="scale(.26458)"/></svg>