<svg xmlns="http://www.w3.org/2000/svg" xmlns:xlink="http://www.w3.org/1999/xlink" xml:space="preserve" width="1000" height="562" viewBox="0 0 264.583 148.696"><defs><radialGradient xlink:href="#a" id="b" cx="26.375" cy="97.114" r="132.292" fx="26.375" fy="97.114" gradientTransform="matrix(0 1.15153 -2.00992 0 221.566 -12.968)" gradientUnits="userSpaceOnUse"/><linearGradient id="a"><stop offset="0" style="stop-color:#fff;stop-opacity:1"/><stop offset="1" style="stop-color:#ededed;stop-opacity:1"/></linearGradient></defs><path d="M0 0h264.583v148.696H0z" style="opacity:.98;fill:url(#b);fill-opacity:1;stroke-width:1.61952"/><g fill-rule="evenodd" clip-rule="evenodd"><path d="m199.887 76.989-7.098 24.595h5.117l.743-3.136h6.603l.66 3.136h5.2l-7.18-24.595Zm2.063 6.685q0 .495.207 1.486.206.99.372 1.815l1.65 7.18h-4.539l1.733-7.18q.166-.825.37-1.815.208-.99.207-1.486m-25.75-6.767v24.677h4.952v-7.841h2.146l3.301 7.84h4.87l-3.467-8.83q1.569-1.074 2.56-2.93.99-1.859.99-4.25v-.579q0-3.465-2.106-5.777-2.103-2.311-5.405-2.31zm4.952 4.621h2.394q1.32.001 2.228.866.907.868.907 2.682v.167q0 2.063-.907 2.97-.908.908-2.228.908h-2.394zm8.254-34.334v24.677h7.923q1.897 0 3.507-.741a7.4 7.4 0 0 0 2.683-2.063q1.074-1.323 1.693-3.344t.619-4.333v-4.457q0-2.062-.62-3.879-.618-1.816-1.692-3.137a7 7 0 0 0-2.683-2.021q-1.61-.702-3.507-.702zm4.952 4.622h2.394q1.072 0 1.815.33t1.238.99q.577.743.825 1.733a9.3 9.3 0 0 1 .248 2.23v3.96q0 1.57-.248 2.765-.247 1.197-.825 2.023-.495.66-1.238 1.072t-1.815.413h-2.394zm-60.83-4.95q-1.731 0-3.011.453-1.28.455-2.354 1.198-1.567 1.402-2.476 3.714-.906 2.31-.907 5.777v2.971q0 3.55.907 5.942.91 2.394 2.476 3.632 1.074.827 2.354 1.28t3.011.453q1.57 0 2.849-.453a8.5 8.5 0 0 0 2.352-1.28q1.65-1.238 2.476-3.632.825-2.392.825-5.86v-3.053q0-3.466-.825-5.777t-2.476-3.714a10 10 0 0 0-2.352-1.198q-1.28-.453-2.849-.453m0 4.622q.745 0 1.322.248.578.247.99.741.578.661.907 2.024.331 1.36.331 3.672v2.806q0 2.312-.33 3.633-.33 1.32-.908 1.98-.413.58-1.032.866-.619.29-1.28.289-.825.001-1.484-.289a2.55 2.55 0 0 1-1.074-.865q-.577-.66-.908-1.981-.33-1.32-.33-3.633v-2.806q0-2.312.33-3.672.331-1.362.908-2.024a2.5 2.5 0 0 1 1.074-.741 4.2 4.2 0 0 1 1.484-.248m84.186 25.419h-4.952v24.677h12.134v-4.54h-7.182zm-44.157-.004h-14.113v4.622h4.622v20.055h4.87V81.525h4.621zm-16.589 24.681V76.907h-4.54V91.35l-6.684-14.443h-4.292v24.677h4.456V87.306l6.687 14.278zM130.227 91.35h6.439v-4.623h-6.439v-5.199h7.595v-4.621h-12.546v24.677h12.546v-4.54h-7.595zm-17.83-9.078a2.06 2.06 0 0 1 1.031-.786 4.3 4.3 0 0 1 1.362-.206q.992 0 1.94.495.949.495 1.526 1.981l4.375-1.815q-1.073-2.807-3.177-4.127t-4.664-1.32a8.5 8.5 0 0 0-2.93.495q-1.361.495-2.352 1.32-1.568 1.32-2.434 3.632-.869 2.31-.868 5.778v3.053q0 3.55.868 5.86.867 2.31 2.434 3.631.99.828 2.352 1.238 1.362.413 2.93.413 2.725 0 4.746-1.278 2.022-1.28 3.095-3.838l-4.375-1.982q-.578 1.485-1.484 1.982a4.1 4.1 0 0 1-1.982.495q-.743 0-1.362-.207a2.05 2.05 0 0 1-1.031-.783q-.578-.578-.908-1.941-.33-1.361-.33-3.672v-2.725q0-2.475.33-3.796t.908-1.897m53.073-35.079h-4.622l-4.293 15.515-4.291-15.515h-4.706L144.67 71.87h4.623l1.484-13.453 3.715 13.453h4.044l3.632-13.453 1.569 13.453h4.54zm11.555 14.445h7.18v-4.705h-7.18v-5.117h8.172v-4.622h-13.042v24.677h13.042v-4.54h-8.172zm42.258-14.448-4.127 7.757-3.96-7.757h-5.366l6.932 12.793v11.884h4.952V59.983l6.934-12.793zm-106.886 5.287a2.56 2.56 0 0 1 1.031-.741 3.6 3.6 0 0 1 1.362-.249q.992 0 1.94.537.949.537 1.526 2.104l4.375-1.98q-1.073-2.806-3.177-4.044t-4.664-1.238a9.3 9.3 0 0 0-2.93.453q-1.361.455-2.352 1.197-1.568 1.403-2.434 3.715-.869 2.31-.868 5.777v2.971q0 3.55.868 5.942.867 2.394 2.434 3.632.99.826 2.352 1.28t2.93.453q2.725 0 4.746-1.278 2.022-1.28 3.095-3.92l-4.375-1.9q-.578 1.403-1.484 1.981a3.6 3.6 0 0 1-1.982.577 3.2 3.2 0 0 1-1.362-.288 2.6 2.6 0 0 1-1.031-.866q-.578-.66-.908-1.981-.33-1.32-.33-3.632v-2.807q0-2.31.33-3.672t.908-2.023"/><path fill="#fdc600" d="M75.014 78.637q-1.073 1.98-3.095 3.178a8.5 8.5 0 0 1-4.417 1.196q-3.548 0-6.066-2.516-2.516-2.519-2.516-6.067t2.516-6.108q2.518-2.558 6.066-2.558 2.394 0 4.417 1.278 2.022 1.28 3.095 3.178L81.7 66.42q-2.064-3.714-5.86-5.983-3.797-2.27-8.337-2.27a15.7 15.7 0 0 0-6.273 1.28q-2.971 1.28-5.158 3.466t-3.466 5.158-1.28 6.356 1.28 6.355 3.466 5.159q2.188 2.187 5.158 3.466a15.7 15.7 0 0 0 6.273 1.28q4.458 0 8.295-2.312 3.837-2.31 5.902-5.942z"/><path fill="#fdc600" d="M99.444 74.265q0 6.604-2.518 12.464t-6.81 10.193-10.15 6.85q-5.862 2.516-12.464 2.517-8.914 0-16.301-4.54-7.386-4.538-11.514-11.885l6.686-3.632q3.054 5.448 8.748 8.833 5.697 3.383 12.38 3.383 4.954 0 9.41-1.899 4.456-1.897 7.717-5.158 3.26-3.26 5.2-7.675 1.94-4.416 1.94-9.451v.166q0-5.037-1.94-9.451-1.94-4.416-5.2-7.675-3.26-3.261-7.717-5.159t-9.41-1.898q-6.683 0-12.38 3.383-5.694 3.385-8.748 8.833l-6.686-3.632q4.127-7.347 11.514-11.886 7.388-4.54 16.3-4.54 6.604 0 12.465 2.519 5.86 2.516 10.15 6.85 4.293 4.333 6.81 10.192 2.518 5.86 2.518 12.464z"/></g><path d="M40 25a15 16 0 0 0-15 16v480a15 16 0 0 0 15 16h920a15 16 0 0 0 15-16V41a15 16 0 0 0-15-16zm12.5 12.5h895a15 16 0 0 1 15 16v455a15 16 0 0 1-15 16h-895a15 16 0 0 1-15-16v-455a15 16 0 0 1 15-16" style="fill:#fdc600;fill-opacity:1;opacity:.98;stroke-width:85.9894" transform="scale(.26458)"/></svg>