<svg xmlns="http://www.w3.org/2000/svg" xmlns:xlink="http://www.w3.org/1999/xlink" width="1000" height="1500" viewBox="0 0 264.583 396.875"><defs><radialGradient xlink:href="#a" id="b" cx="26.375" cy="97.114" r="132.292" fx="26.375" fy="97.114" gradientTransform="matrix(0 3.07349 -2.00992 0 221.566 -34.611)" gradientUnits="userSpaceOnUse"/><linearGradient id="a"><stop offset="0" style="stop-color:#282828;stop-opacity:1"/><stop offset="1" style="stop-color:#191919;stop-opacity:1"/></linearGradient></defs><path d="M0 0h264.583v396.875H0z" style="opacity:.98;fill:url(#b);fill-opacity:1;stroke-width:2.64583"/><path d="M49.832 25A25 25 0 0 0 25 50v1400a25 25 0 0 0 25 25h900a25 25 0 0 0 25-25V50a25 25 0 0 0-25-25zm23.711 25a23.684 24.138 0 0 1 .14 0h852.633A23.684 24.138 0 0 1 950 74.139V1425.86a23.684 24.138 0 0 1-23.684 24.14H73.684A23.684 24.138 0 0 1 50 1425.861V74.14A23.684 24.138 0 0 1 73.543 50" style="opacity:.98;fill:#e50914;fill-opacity:1;stroke-width:46.3438" transform="scale(.26458)"/><path fill="#d81f26" d="M65.154 220.238c-2.786.49-5.621.636-8.554 1.027l-8.945-26.2v27.324c-2.786.293-5.328.684-7.968 1.075v-50.053h7.43l10.167 28.4v-28.4h7.87zm15.398-28.497c3.03 0 7.674-.147 10.46-.147v7.82c-3.47 0-7.527 0-10.46.148v11.633c4.595-.293 9.19-.684 13.833-.83v7.526l-21.654 1.711v-46.191h21.654v7.82H80.552Zm42.917-10.51h-8.114v35.977c-2.64 0-5.28 0-7.821.097v-36.073H99.42v-7.821h24.049zm12.708 9.972h10.705v7.821h-10.705v17.744h-7.674V173.41h21.85v7.82h-14.176zm26.885 18.721c4.448.098 8.945.44 13.295.685v7.723c-6.99-.44-13.98-.88-21.116-1.027v-43.894h7.82zm19.894 8.946c2.493.146 5.133.293 7.674.586V173.41h-7.674zm41.94-45.46-9.923 23.806 9.923 26.248c-2.933-.39-5.866-.928-8.799-1.417l-5.621-14.469-5.718 13.296c-2.836-.49-5.573-.636-8.408-1.027l10.07-22.925-9.093-23.511h8.407l5.133 13.149 5.475-13.15z" style="fill:#e50914;fill-opacity:1;stroke-width:.180867"/></svg>