<svg xmlns="http://www.w3.org/2000/svg" xmlns:xlink="http://www.w3.org/1999/xlink" xml:space="preserve" width="1000" height="1500" viewBox="0 0 264.583 396.875"><defs><linearGradient id="d"><stop offset="0" style="stop-color:#282828;stop-opacity:1"/><stop offset="1" style="stop-color:#191919;stop-opacity:1"/></linearGradient><linearGradient id="b"><stop offset="0" style="stop-color:#0f30b3;stop-opacity:.46846846"/><stop offset=".1" style="stop-color:#1c45cf;stop-opacity:.65765768"/><stop offset=".2" style="stop-color:#2b53d7;stop-opacity:1"/><stop offset=".3" style="stop-color:#3757c6;stop-opacity:1"/><stop offset=".404" style="stop-color:#665cb2;stop-opacity:1"/><stop offset=".5" style="stop-color:#87539b;stop-opacity:1"/><stop offset=".598" style="stop-color:#a44080;stop-opacity:1"/><stop offset=".7" style="stop-color:#b4325e;stop-opacity:1"/><stop offset=".8" style="stop-color:#c42038;stop-opacity:1"/><stop offset=".9" style="stop-color:#bd1016;stop-opacity:1"/><stop offset="1" style="stop-color:#99060c;stop-opacity:1"/></linearGradient><linearGradient id="a"><stop offset="0" style="stop-color:#01168b;stop-opacity:1"/><stop offset=".1" style="stop-color:#001b9c;stop-opacity:1"/><stop offset=".2" style="stop-color:#021d9e;stop-opacity:1"/><stop offset=".3" style="stop-color:#06198f;stop-opacity:1"/><stop offset=".404" style="stop-color:#31127a;stop-opacity:1"/><stop offset=".5" style="stop-color:#500b64;stop-opacity:1"/><stop offset=".598" style="stop-color:#77054d;stop-opacity:1"/><stop offset=".7" style="stop-color:#960234;stop-opacity:1"/><stop offset=".8" style="stop-color:#bb0221;stop-opacity:1"/><stop offset=".9" style="stop-color:#b00005;stop-opacity:1"/><stop offset="1" style="stop-color:#9a0003;stop-opacity:1"/></linearGradient><linearGradient xlink:href="#a" id="f" x1="-320" x2="680" y1="572.362" y2="572.362" gradientUnits="userSpaceOnUse"/><linearGradient xlink:href="#b" id="g" x1="-320" x2="680" y1="210.23" y2="210.23" gradientUnits="userSpaceOnUse"/><linearGradient xlink:href="#a" id="h" x1="25" x2="975" y1="750" y2="750" gradientUnits="userSpaceOnUse"/><linearGradient xlink:href="#b" id="i" x1="25" x2="975" y1="750" y2="750" gradientUnits="userSpaceOnUse"/><radialGradient xlink:href="#d" id="e" cx="26.375" cy="97.114" r="132.292" fx="26.375" fy="97.114" gradientTransform="matrix(0 3.07349 -2.00992 0 221.566 -34.611)" gradientUnits="userSpaceOnUse"/></defs><path d="M0 0h264.583v396.875H0z" style="opacity:.98;fill:url(#e);fill-opacity:1;stroke-width:2.64583"/><path d="M-320 572.362v-365H680v365z" style="fill:url(#f);fill-opacity:1;fill-rule:evenodd;stroke:none" transform="translate(98.954 126.232)scale(.1852)"/><path d="M-320 437.362v-230H680v103s-88.781-2.7-136.492-2.7c-271.7 0-599.123 52.94-863.508 129.7" style="fill:url(#g);stroke:none" transform="translate(98.954 126.232)scale(.1852)"/><path d="M-72 518.362h-112v-167h-58v-88h228v88h-58zm195 0v-255h208v64h-96v46h69v64h-69v81zm340 0v-224l116-33v257z" style="fill:#fff;stroke:none" transform="translate(98.954 126.232)scale(.1852)"/><path d="M49.832 25A25 25 0 0 0 25 50v1400a25 25 0 0 0 25 25h900a25 25 0 0 0 25-25V50a25 25 0 0 0-25-25zm23.711 25a23.684 24.138 0 0 1 .14 0h852.633A23.684 24.138 0 0 1 950 74.139V1425.86a23.684 24.138 0 0 1-23.684 24.14H73.684A23.684 24.138 0 0 1 50 1425.861V74.14A23.684 24.138 0 0 1 73.543 50" style="display:inline;opacity:.98;fill:url(#h);fill-opacity:1;stroke-width:46.3438" transform="scale(.26458)"/><path d="M49.832 25A25 25 0 0 0 25 50v1400a25 25 0 0 0 25 25h900a25 25 0 0 0 25-25V50a25 25 0 0 0-25-25zm23.711 25a23.684 24.138 0 0 1 .14 0h852.633A23.684 24.138 0 0 1 950 74.139V1425.86a23.684 24.138 0 0 1-23.684 24.14H73.684A23.684 24.138 0 0 1 50 1425.861V74.14A23.684 24.138 0 0 1 73.543 50" style="display:inline;opacity:.98;fill:url(#i);fill-opacity:1;stroke-width:46.3438" transform="scale(.26458)"/></svg>