<svg xmlns="http://www.w3.org/2000/svg" xmlns:xlink="http://www.w3.org/1999/xlink" xml:space="preserve" width="1000" height="1500" viewBox="0 0 264.583 396.875"><defs><radialGradient xlink:href="#a" id="b" cx="26.375" cy="97.114" r="132.292" fx="26.375" fy="97.114" gradientTransform="matrix(0 3.07349 -2.00992 0 221.566 -34.611)" gradientUnits="userSpaceOnUse"/><linearGradient id="a"><stop offset="0" style="stop-color:#282828;stop-opacity:1"/><stop offset="1" style="stop-color:#191919;stop-opacity:1"/></linearGradient></defs><path d="M0 0h264.583v396.875H0z" style="opacity:.98;fill:url(#b);fill-opacity:1;stroke-width:2.64583"/><path d="M190.83 572.5H0L95.42 0l286.25 286.25L667.92 0l95.41 572.5H572.5l-27.26-163.57L381.67 572.5 218.09 408.93z" style="fill:#d2d2d2;display:inline" transform="translate(39.688 128.984)scale(.24263)"/><path d="M388.19 114.56C415.08 68.38 442 25.53 460.13.07H340.32c-49.95 70.15-109.6 171-126.1 242.13a172.7 172.7 0 0 0-5.84 44.42c0 95 77.94 172.31 173.71 172.31s173.73-77.29 173.73-172.31c0-92.07-75.01-168.82-167.63-172.06m69.18 172.06a75.57 75.57 0 1 1-75.56-75.35 75.53 75.53 0 0 1 75.56 75.35" style="fill:#e61e1e;display:inline" transform="translate(39.688 128.984)scale(.24263)"/><path d="M49.832 25A25 25 0 0 0 25 50v1400a25 25 0 0 0 25 25h900a25 25 0 0 0 25-25V50a25 25 0 0 0-25-25zm23.711 25a23.684 24.138 0 0 1 .14 0h852.633A23.684 24.138 0 0 1 950 74.139V1425.86a23.684 24.138 0 0 1-23.684 24.14H73.684A23.684 24.138 0 0 1 50 1425.861V74.14A23.684 24.138 0 0 1 73.543 50" style="opacity:.98;fill:#e61e1e;fill-opacity:1;stroke-width:46.3438" transform="scale(.26458)"/></svg>