<svg xmlns="http://www.w3.org/2000/svg" xmlns:xlink="http://www.w3.org/1999/xlink" xml:space="preserve" width="1000" height="562" viewBox="0 0 264.583 148.696"><defs><radialGradient xlink:href="#a" id="b" cx="26.375" cy="97.114" r="132.292" fx="26.375" fy="97.114" gradientTransform="matrix(0 1.15153 -2.00992 0 221.566 -12.968)" gradientUnits="userSpaceOnUse"/><linearGradient id="a"><stop offset="0" style="stop-color:#282828;stop-opacity:1"/><stop offset="1" style="stop-color:#191919;stop-opacity:1"/></linearGradient></defs><path d="M0 0h264.583v148.696H0z" style="opacity:.98;fill:url(#b);fill-opacity:1;stroke-width:1.61952"/><path d="M381.67 572.5 218.09 408.93 190.83 572.5H0L95.42 0l286.25 286.25L667.92 0l95.41 572.5H572.5l-27.26-163.57z" style="fill:#d2d2d2" transform="translate(61.736 21.431)scale(.18486)"/><path d="M388.19 114.56C415.08 68.38 442 25.53 460.13.07H340.32c-49.95 70.15-109.6 171-126.1 242.13a172.7 172.7 0 0 0-5.84 44.42c0 95 77.94 172.31 173.71 172.31s173.73-77.29 173.73-172.31c0-92.07-75.01-168.82-167.63-172.06m69.18 172.06a75.57 75.57 0 1 1-75.56-75.35 75.53 75.53 0 0 1 75.56 75.35" style="fill:#e61e1e" transform="translate(61.736 21.431)scale(.18486)"/><path d="M40 25a15 16 0 0 0-15 16v480a15 16 0 0 0 15 16h920a15 16 0 0 0 15-16V41a15 16 0 0 0-15-16zm12.5 12.5h895a15 16 0 0 1 15 16v455a15 16 0 0 1-15 16h-895a15 16 0 0 1-15-16v-455a15 16 0 0 1 15-16" style="opacity:.98;fill:#e61e1e;fill-opacity:1;stroke-width:85.9894" transform="scale(.26458)"/></svg>