<svg xmlns="http://www.w3.org/2000/svg" xmlns:xlink="http://www.w3.org/1999/xlink" xml:space="preserve" width="1000" height="1500" viewBox="0 0 264.583 396.875"><defs><radialGradient xlink:href="#a" id="b" cx="26.375" cy="97.114" r="132.292" fx="26.375" fy="97.114" gradientTransform="matrix(0 3.07349 -2.00992 0 221.566 -34.611)" gradientUnits="userSpaceOnUse"/><linearGradient id="a"><stop offset="0" style="stop-color:#fff;stop-opacity:1"/><stop offset="1" style="stop-color:#ededed;stop-opacity:1"/></linearGradient></defs><path d="M0 0h264.583v396.875H0z" style="opacity:.98;fill:url(#b);fill-opacity:1;stroke-width:2.64583"/><g transform="translate(39.688 119.35)scale(.7468)"><circle cx="39.5" cy="136.5" r="39.5" style="fill:#00d282"/><path d="M220.9 82.5c-6.3-5-21.1-16.6-48.6-16.3-8.9.1-15.4 1.4-19.4 2.4l3.3-32.8h77.6V0H123.4L110 110.7l28.8 2.9c10.8-8.9 22.4-11.4 30.7-11.4 9.5-.1 18.7 2.7 25.4 8.4 7.5 6.5 12.8 15.5 12.8 27.5 0 22.4-19.4 37.9-39.1 37.9-15.8 0-30.1-8.7-38.8-20.9l-28.9 24.2c18.5 20.9 43.3 32.5 69.2 32.5 43.3 0 77.9-29.5 77.9-73.7 0-22.9-10.4-42.5-27.1-55.6" style="fill:#232323"/></g><path d="M49.832 25A25 25 0 0 0 25 50v1400a25 25 0 0 0 25 25h900a25 25 0 0 0 25-25V50a25 25 0 0 0-25-25zm23.711 25a23.684 24.138 0 0 1 .14 0h852.633A23.684 24.138 0 0 1 950 74.139V1425.86a23.684 24.138 0 0 1-23.684 24.14H73.684A23.684 24.138 0 0 1 50 1425.861V74.14A23.684 24.138 0 0 1 73.543 50" style="opacity:.98;fill:#00d282;fill-opacity:1;stroke-width:46.3438" transform="scale(.26458)"/></svg>